<svg xmlns="http://www.w3.org/2000/svg" xmlns:xlink="http://www.w3.org/1999/xlink" version="1.1" width="256" height="256" viewBox="0 0 256 256" xml:space="preserve">

<defs>
</defs>
<g style="stroke: none; stroke-width: 0; stroke-dasharray: none; stroke-linecap: butt; stroke-linejoin: miter; stroke-miterlimit: 10; fill: none; fill-rule: nonzero; opacity: 1;" transform="translate(1.4065934065934016 1.4065934065934016) scale(2.81 2.81)" >
	<path d="M 55.754 90 c -1.206 0 -2.364 -0.41 -3.315 -1.186 c -1.117 -0.91 -1.8 -2.202 -1.923 -3.639 l -1.585 -19.915 c -0.064 -0.894 -0.49 -1.734 -1.167 -2.312 l -10.339 -8.822 c -1.847 -1.577 -2.779 -3.958 -2.494 -6.369 L 36.67 33.08 l -2.062 1.329 c -0.701 0.452 -1.161 1.186 -1.262 2.014 l -1.066 8.702 c -0.314 2.558 -2.646 4.39 -5.21 4.095 c -1.251 -0.146 -2.369 -0.772 -3.147 -1.763 c -0.779 -0.99 -1.123 -2.225 -0.97 -3.475 l 1.502 -12.26 c 0.244 -1.989 1.367 -3.726 3.082 -4.764 l 9.433 -5.707 c 1.967 -1.189 4.301 -1.664 6.575 -1.332 l 3.942 0.574 c 2.175 0.317 3.676 2.275 3.418 4.457 l -2.6 21.942 c -0.085 0.718 0.192 1.426 0.741 1.895 l 8.307 7.088 c 1.239 1.059 2.019 2.598 2.137 4.225 l 1.904 24.151 c 0.238 2.842 -1.799 5.334 -4.637 5.669 l 0 0 l -0.373 0.044 C 56.174 89.988 55.964 90 55.754 90 z M 56.641 88.925 h 0.01 H 56.641 z M 37.913 30.089 c 0.184 0 0.367 0.05 0.529 0.152 c 0.329 0.205 0.509 0.581 0.464 0.966 l -1.989 16.784 c -0.207 1.747 0.468 3.472 1.806 4.613 l 10.339 8.822 c 1.081 0.924 1.76 2.267 1.862 3.683 l 1.584 19.902 c 0.075 0.885 0.5 1.687 1.192 2.252 c 0.693 0.565 1.558 0.819 2.45 0.713 l 0.373 -0.044 c 1.762 -0.208 3.025 -1.754 2.878 -3.52 l -1.905 -24.163 c -0.08 -1.103 -0.605 -2.141 -1.441 -2.853 l -8.306 -7.088 c -1.059 -0.903 -1.594 -2.269 -1.43 -3.65 l 2.6 -21.943 c 0.13 -1.098 -0.625 -2.083 -1.72 -2.243 l -3.942 -0.574 c -1.815 -0.265 -3.681 0.113 -5.252 1.063 l -9.433 5.707 c -1.187 0.719 -1.964 1.92 -2.132 3.296 l -1.502 12.26 c -0.088 0.718 0.109 1.427 0.557 1.996 c 0.447 0.569 1.089 0.929 1.808 1.013 c 1.461 0.171 2.811 -0.883 2.992 -2.352 l 1.066 -8.702 c 0.174 -1.419 0.962 -2.677 2.164 -3.451 l 3.846 -2.479 C 37.536 30.142 37.724 30.089 37.913 30.089 z" style="stroke: none; stroke-width: 1; stroke-dasharray: none; stroke-linecap: butt; stroke-linejoin: miter; stroke-miterlimit: 10; fill: rgb(0,0,0); fill-rule: nonzero; opacity: 1;" transform=" matrix(1 0 0 1 0 0) " stroke-linecap="round" />
	<path d="M 62.388 43.719 c -0.05 0 -0.101 0 -0.15 -0.002 c -1.26 -0.04 -2.427 -0.568 -3.286 -1.489 L 48.4 32.669 c -0.409 -0.371 -0.44 -1.003 -0.069 -1.412 c 0.37 -0.41 1.004 -0.441 1.413 -0.069 l 10.609 9.617 c 0.553 0.587 1.223 0.891 1.946 0.914 c 0.722 0.012 1.41 -0.238 1.937 -0.735 c 1.076 -1.016 1.13 -2.722 0.12 -3.804 L 48.524 23.239 c -0.414 -0.365 -0.454 -0.997 -0.089 -1.412 c 0.366 -0.414 0.997 -0.453 1.411 -0.089 l 15.901 14.007 c 1.829 1.952 1.735 4.923 -0.139 6.692 C 64.73 43.267 63.592 43.719 62.388 43.719 z" style="stroke: none; stroke-width: 1; stroke-dasharray: none; stroke-linecap: butt; stroke-linejoin: miter; stroke-miterlimit: 10; fill: rgb(0,0,0); fill-rule: nonzero; opacity: 1;" transform=" matrix(1 0 0 1 0 0) " stroke-linecap="round" />
	<path d="M 49.081 17.595 c -4.851 0 -8.797 -3.946 -8.797 -8.797 C 40.284 3.947 44.23 0 49.081 0 c 4.852 0 8.798 3.946 8.798 8.797 C 57.879 13.648 53.933 17.595 49.081 17.595 z M 49.081 2 c -3.748 0 -6.797 3.049 -6.797 6.797 s 3.049 6.797 6.797 6.797 c 3.748 0 6.798 -3.049 6.798 -6.797 S 52.829 2 49.081 2 z" style="stroke: none; stroke-width: 1; stroke-dasharray: none; stroke-linecap: butt; stroke-linejoin: miter; stroke-miterlimit: 10; fill: rgb(0,0,0); fill-rule: nonzero; opacity: 1;" transform=" matrix(1 0 0 1 0 0) " stroke-linecap="round" />
	<path d="M 33.424 90 c -0.338 0 -0.678 -0.032 -1.017 -0.099 c -2.807 -0.545 -4.685 -3.278 -4.186 -6.094 l 6.72 -36.117 c 0.1 -0.544 0.617 -0.906 1.166 -0.801 c 0.543 0.102 0.901 0.623 0.8 1.166 l -6.718 36.108 c -0.308 1.739 0.858 3.436 2.6 3.774 c 0.869 0.169 1.75 -0.016 2.479 -0.517 c 0.729 -0.502 1.215 -1.259 1.368 -2.13 l 4.992 -28.229 c 0.096 -0.544 0.612 -0.908 1.159 -0.811 c 0.543 0.096 0.907 0.614 0.811 1.158 l -4.992 28.228 c -0.247 1.403 -1.029 2.622 -2.204 3.431 C 35.51 89.682 34.481 90 33.424 90 z" style="stroke: none; stroke-width: 1; stroke-dasharray: none; stroke-linecap: butt; stroke-linejoin: miter; stroke-miterlimit: 10; fill: rgb(0,0,0); fill-rule: nonzero; opacity: 1;" transform=" matrix(1 0 0 1 0 0) " stroke-linecap="round" />
</g>
</svg>